<svg xmlns="http://www.w3.org/2000/svg" width="32" height="32" viewBox="0 0 512 512">
  <g transform="rotate(90 256 256)">
    <path fill="#333333" d="M256 512c-96.495 0-175-78.505-175-175V175C81 78.505 159.505 0 256 0s175 78.505 175 175v162c0 96.495-78.505 175-175 175zm0-422c-46.869 0-85 38.131-85 85v162c0 46.869 38.131 85 85 85s85-38.131 85-85V175c0-46.869-38.131-85-85-85z"/>
    <path fill="#1a1a1a" d="M256 0v90c46.869 0 85 38.131 85 85v162c0 46.869-38.131 85-85 85v90c96.495 0 175-78.505 175-175V175C431 78.505 352.495 0 256 0z"/>
  </g>
</svg>
